<mxfile host="app.diagrams.net" modified="2024-06-11T04:21:14.111Z" agent="Mozilla/5.0 (Windows NT 10.0; Win64; x64) AppleWebKit/537.36 (KHTML, like Gecko) Chrome/125.0.0.0 Safari/537.36" etag="ZGlwHnb3LRI93diAETm6" version="24.5.2" type="github">
  <diagram id="C5RBs43oDa-KdzZeNtuy" name="Page-1">
    <mxGraphModel dx="1434" dy="738" grid="1" gridSize="10" guides="1" tooltips="1" connect="1" arrows="1" fold="1" page="1" pageScale="1" pageWidth="827" pageHeight="1169" math="0" shadow="0">
      <root>
        <mxCell id="WIyWlLk6GJQsqaUBKTNV-0" />
        <mxCell id="WIyWlLk6GJQsqaUBKTNV-1" parent="WIyWlLk6GJQsqaUBKTNV-0" />
        <mxCell id="e_LVXAWWAiUJYfjZ-BVR-2" value="" style="edgeStyle=orthogonalEdgeStyle;rounded=0;orthogonalLoop=1;jettySize=auto;html=1;" edge="1" parent="WIyWlLk6GJQsqaUBKTNV-1" source="e_LVXAWWAiUJYfjZ-BVR-21" target="e_LVXAWWAiUJYfjZ-BVR-1">
          <mxGeometry relative="1" as="geometry" />
        </mxCell>
        <mxCell id="e_LVXAWWAiUJYfjZ-BVR-4" value="" style="edgeStyle=orthogonalEdgeStyle;rounded=0;orthogonalLoop=1;jettySize=auto;html=1;exitX=0;exitY=0;exitDx=0;exitDy=0;" edge="1" parent="WIyWlLk6GJQsqaUBKTNV-1" source="e_LVXAWWAiUJYfjZ-BVR-21" target="e_LVXAWWAiUJYfjZ-BVR-3">
          <mxGeometry relative="1" as="geometry" />
        </mxCell>
        <mxCell id="e_LVXAWWAiUJYfjZ-BVR-6" value="" style="edgeStyle=orthogonalEdgeStyle;rounded=0;orthogonalLoop=1;jettySize=auto;html=1;exitX=1;exitY=1;exitDx=0;exitDy=0;" edge="1" parent="WIyWlLk6GJQsqaUBKTNV-1" source="e_LVXAWWAiUJYfjZ-BVR-21" target="e_LVXAWWAiUJYfjZ-BVR-3">
          <mxGeometry relative="1" as="geometry" />
        </mxCell>
        <mxCell id="e_LVXAWWAiUJYfjZ-BVR-7" value="" style="edgeStyle=orthogonalEdgeStyle;rounded=0;orthogonalLoop=1;jettySize=auto;html=1;exitX=0;exitY=0.5;exitDx=0;exitDy=0;" edge="1" parent="WIyWlLk6GJQsqaUBKTNV-1" source="e_LVXAWWAiUJYfjZ-BVR-21" target="e_LVXAWWAiUJYfjZ-BVR-3">
          <mxGeometry relative="1" as="geometry" />
        </mxCell>
        <mxCell id="e_LVXAWWAiUJYfjZ-BVR-9" value="" style="edgeStyle=orthogonalEdgeStyle;rounded=0;orthogonalLoop=1;jettySize=auto;html=1;exitX=1;exitY=0;exitDx=0;exitDy=0;" edge="1" parent="WIyWlLk6GJQsqaUBKTNV-1" source="e_LVXAWWAiUJYfjZ-BVR-21" target="e_LVXAWWAiUJYfjZ-BVR-8">
          <mxGeometry relative="1" as="geometry" />
        </mxCell>
        <mxCell id="e_LVXAWWAiUJYfjZ-BVR-15" value="" style="edgeStyle=orthogonalEdgeStyle;rounded=0;orthogonalLoop=1;jettySize=auto;html=1;exitX=1;exitY=0.5;exitDx=0;exitDy=0;" edge="1" parent="WIyWlLk6GJQsqaUBKTNV-1" source="e_LVXAWWAiUJYfjZ-BVR-21" target="e_LVXAWWAiUJYfjZ-BVR-14">
          <mxGeometry relative="1" as="geometry">
            <Array as="points">
              <mxPoint x="850" y="120" />
              <mxPoint x="850" y="190" />
              <mxPoint x="650" y="190" />
            </Array>
          </mxGeometry>
        </mxCell>
        <mxCell id="e_LVXAWWAiUJYfjZ-BVR-1" value="Deals" style="whiteSpace=wrap;html=1;rounded=1;glass=0;strokeWidth=1;shadow=0;" vertex="1" parent="WIyWlLk6GJQsqaUBKTNV-1">
          <mxGeometry x="290" y="260" width="120" height="60" as="geometry" />
        </mxCell>
        <mxCell id="e_LVXAWWAiUJYfjZ-BVR-19" value="" style="edgeStyle=orthogonalEdgeStyle;rounded=0;orthogonalLoop=1;jettySize=auto;html=1;" edge="1" parent="WIyWlLk6GJQsqaUBKTNV-1" source="e_LVXAWWAiUJYfjZ-BVR-3" target="e_LVXAWWAiUJYfjZ-BVR-18">
          <mxGeometry relative="1" as="geometry" />
        </mxCell>
        <mxCell id="e_LVXAWWAiUJYfjZ-BVR-3" value="Log In" style="whiteSpace=wrap;html=1;rounded=1;glass=0;strokeWidth=1;shadow=0;" vertex="1" parent="WIyWlLk6GJQsqaUBKTNV-1">
          <mxGeometry x="140" y="260" width="120" height="60" as="geometry" />
        </mxCell>
        <mxCell id="e_LVXAWWAiUJYfjZ-BVR-8" value="Order" style="whiteSpace=wrap;html=1;rounded=1;glass=0;strokeWidth=1;shadow=0;" vertex="1" parent="WIyWlLk6GJQsqaUBKTNV-1">
          <mxGeometry x="470" y="260" width="120" height="60" as="geometry" />
        </mxCell>
        <mxCell id="e_LVXAWWAiUJYfjZ-BVR-17" value="" style="edgeStyle=orthogonalEdgeStyle;rounded=0;orthogonalLoop=1;jettySize=auto;html=1;" edge="1" parent="WIyWlLk6GJQsqaUBKTNV-1" source="e_LVXAWWAiUJYfjZ-BVR-14" target="e_LVXAWWAiUJYfjZ-BVR-16">
          <mxGeometry relative="1" as="geometry" />
        </mxCell>
        <mxCell id="e_LVXAWWAiUJYfjZ-BVR-14" value="Products" style="whiteSpace=wrap;html=1;rounded=1;glass=0;strokeWidth=1;shadow=0;" vertex="1" parent="WIyWlLk6GJQsqaUBKTNV-1">
          <mxGeometry x="610" y="260" width="120" height="60" as="geometry" />
        </mxCell>
        <mxCell id="e_LVXAWWAiUJYfjZ-BVR-16" value="Categories" style="whiteSpace=wrap;html=1;rounded=1;glass=0;strokeWidth=1;shadow=0;" vertex="1" parent="WIyWlLk6GJQsqaUBKTNV-1">
          <mxGeometry x="740" y="350" width="120" height="60" as="geometry" />
        </mxCell>
        <mxCell id="e_LVXAWWAiUJYfjZ-BVR-18" value="Is registered" style="rhombus;whiteSpace=wrap;html=1;rounded=1;glass=0;strokeWidth=1;shadow=0;" vertex="1" parent="WIyWlLk6GJQsqaUBKTNV-1">
          <mxGeometry x="150" y="370" width="100" height="100" as="geometry" />
        </mxCell>
        <mxCell id="e_LVXAWWAiUJYfjZ-BVR-21" value="Main" style="ellipse;whiteSpace=wrap;html=1;aspect=fixed;" vertex="1" parent="WIyWlLk6GJQsqaUBKTNV-1">
          <mxGeometry x="400" y="60" width="120" height="120" as="geometry" />
        </mxCell>
      </root>
    </mxGraphModel>
  </diagram>
</mxfile>
